<?xml version="1.0" encoding="UTF-8"?>
<svg version="1.1" viewBox="0 0 856 856" width="214" height="214" xmlns="http://www.w3.org/2000/svg">
<path transform="translate(427,46)" d="m0 0 4 2 16 12 13 11 11 9 13 11 14 12 10 9 11 9 16 15 8 7 31 29 22 22 8 7 14 15 19 19 7 8 16 17 9 10 9 11 11 12 11 14 12 14 10 13 16 21 12 17 24 36 15 25 12 22 11 22 12 28 12 36 6 25 4 29v41l-4 27-7 26-8 20-11 21-8 12-9 12-12 13-12 12-14 11-15 10-25 13-25 9-21 5-23 3h-33l-26-4-24-7-21-9-18-10-17-12-13-11-12-11-7-8-13-16-14-21-10-18-10-21-5-13v-2h-2l-3 10-11 24-10 18-9 14-12 16-9 11-7 8-8 7-11 10-15 11-17 10-21 10-24 8-19 4-17 2h-33l-27-4-24-7-20-8-17-9-18-12-16-13-19-19-13-17-12-19-9-19-7-20-5-19-4-25-1-17v-14l2-24 4-23 7-28 9-26 12-28 11-23 12-22 10-17 14-22 13-19 12-17 16-21 10-13 13-16 11-13 9-11 10-11 7-8 18-20 14-15 13-13 6-7 4-4h2l2-4 12-12 6-5 27-27 8-7 7-7 8-7 12-11 8-7 10-9 11-9 12-11 11-9 13-11 25-20z" fill="#BB1430"/>
<path transform="translate(429,142)" d="m0 0 5 1 3 2v2l4 2 10 10 8 7 18 18 2 1v2l4 2 17 17 8 7 13 13 8 7 14 14 9 12 9 14 8 17 4 13 1 6v25l-3 13-7 16-6 9-9 11-12 12-10 7-11 6-16 7-13 3h-28l-17-3-15-5-16-8-14-9-16-15-5-5-3-1-7-8-9-8v-2l-4-2v-2l-4-2-5 1-14 15-9 9-2 3h-2l-2 4-17 17-3 4h-2l-2 4h-2l-2 4-7 7-5-1-17-16-14-14-8-7-13-13-1-5 7-8 9-10 7-8 17-17 7-8 14-14 7-8 16-16 7-8 10-10 1-2h2l2-4 18-18 7-8 16-16 7-8 12-12 7-8 12-12 7-8z" fill="#FBFBFB"/>
<path transform="translate(599,508)" d="m0 0h29l15 3 15 6 7 3 2-7 3-1h17l3 4 4 14 2 4 1 7 3 8 6 17 2 4-1 5-13 5-6 3h-4l-3-6v-2l-4-2-6-7-5-7-2-1v-3l-6-1-4-4-15-7-7-1-1-1-17-1-11 1-14 7-3 10v7l3 4 12 6 24 6 23 6 1 1 17 3 8 4 13 3 13 8 11 10 7 14 1 1 2 14v16l-4 16h-2l-1 5-9 13-10 10-12 8-14 6-14 4-12 1h-19l-16-2-18-6-9-4h-3l-3 11h-20l-4-10-5-17-12-36-4-13 1-3 17-6 6-1 6 9 3 4v3h2l3 4v3h2l4 6 6 4v2l4 2 5 3 4 4 14 7 10 3 9 1h16l10-2 9-3v-2l5-3 6-12-1-9-3-5-12-6-21-6-56-14-12-5-9-6-8-5-7-10-3-7-4-12v-22l6-17 4-7h2v-3l3-3 3-4h2v-2l9-6h2v-2l10-4 13-5z" fill="#F9F7F7"/>
<path transform="translate(114,512)" d="m0 0h109v21l-1 5-17 2v2l-5 3-3 6-1 9v121l2 5 6 4 3 1h12l25-5v-2l8-5h3v-2h3v-2l10-7 8-10 3-3 1-3 2-1 5-9 4-6 6 1 7 5 10 3-2 10-2 1-3 10-6 12-4 10-4 7-3 8-2 5-2 1-3 10-6 1h-162l-2-3v-15l1-8 17-3 4-2 2-5 2-3 1-5v-122l-2-9h-2l-4-5-17-2-2-3v-21z" fill="#F9F8F8"/>
<path transform="translate(447,240)" d="m0 0h5l31 31 9 14 4 12v11l-3 9-6 10-8 8-13 8-11 3-11-1-12-4-16-11-11-10-5-6-5-3-6-6 1-5 9-9 7-8 13-13 2-3h2l2-4 17-17z" fill="#BB1430"/>
<path transform="translate(429,142)" d="m0 0 5 1 3 2v2l4 2 10 10 8 7 18 18 2 1v2l4 2 17 17 8 7 13 13 8 7 14 14 9 12 9 14 8 17 4 13 1 6v25l-3 13-7 16-6 9-9 11-12 12-10 7-11 6-16 7-13 3h-28l-17-3-15-5-16-8-14-9-16-15-5-5-3-1-7-8-9-8v-2l-4-2v-2l-4-2-5 1-14 15-9 9-2 3h-2l-2 4-17 17-3 4h-2l-2 4h-2l-2 4-7 7-5-1-17-16-14-14-8-7-13-13-1-5 7-8 9-10 7-8 17-17 7-8 14-14 7-8 16-16 7-8 10-10 1-2h2l2-4 18-18 7-8 16-16 7-8 12-12 7-8 12-12 7-8zm3 6-10 9-16 16-6 7-15 15v2l-4 2-7 8-9 9-7 8-9 9v2l-4 2-5 6-5 5-6 7-7 6-6 7-6 5-7 8-10 10v2l-4 2-6 8-6 5-7 8-9 9v2l-4 2v2l-3 1-1 4-3 1-7 8-6 6-3 5-3 4-1 7 4 6h2v2l7 6 1 2h2l2 4h2v2h2v2l8 7 10 10h2v2l4 2 4-1 5-5 4-5 2-1v-3l4-2 7-8 9-9v-2l4-2 5-6 6-5 7-8 11-11 5 1 22 22 8 7 8 8 9 7h2v2h3l1 3 11 7 14 7 8 3 19 4 19 1 14-1 12-3 15-6 9-6 7-5v-2l5-2 1-2 3-1v-3l4-1 9-11v-2h2l8-13 5-12 3-15v-19l-3-13-3-11-10-19-2-4h-2l-2-5h-2l-2-4-8-10-9-10-3-4h-2l-2-4h-2l-2-4h-2l-2-4-10-8-6-7-8-7-3-1-2-4h-2l-1-3-8-7-3-1-2-4h-2l-2-4h-2l-2-4h-2l-2-4-7-6-5-5-6-5h-3v-2z" fill="#E3D7D7"/>
<path transform="translate(427,139)" d="m0 0 8 1 7 6 3 4v2l4 1 5 4 4 6 20 20 8 7 5 3 16 16 2 1 1 3 5 3 8 8 6 4 6 7 7 6 4 5v2l3 1 9 13 9 14 6 15 4 17 1 6v20l-5 19-9 17-3 4h-2l-1 4-5 5-5 6-16 14-9 5-13 6-12 4h-11v-1l16-4 16-7 14-9 12-11 10-11 7-10 6-13 4-12 1-6v-25l-4-16-5-12-8-15-12-16-9-10-12-12-8-7-13-13-8-7-13-13-2-1v-2l-4-2-22-22-16-14v-2l-4-2-5 1-16 16-2 3h-2l-2 4-16 16-7 8-12 12-7 8-16 16-7 8-14 14-1 2h-2l-2 4-14 14-7 8-16 16-7 8-14 14-7 8-13 13-7 8-13 14-1 5 7 8 10 10h-3l-17-17-1-3 4-6 5-6h2l2-4 7-8 20-20 1-2h2v-2h2v-2h2l2-4 22-22 2-3h2l1-5 5-5 9-10 7-9 6-5h2l2-4 6-7 6-5 4-4 1-3 7-6 5-6 5-5h2v-3l7-6 6-7 4-4h2l2-4h2l1-4 5-5 7-8 8-8 5-7h3l2-4 8-7z" fill="#C6324C"/>
<path transform="translate(447,235)" d="m0 0 5 1v2l4 2 4 4v2h2v2h2v2l4 2 6 5v2h2v2h2l7 8 5 6 2 7h2v3h2l3 10v13l-3 10-6 10-8 7h-2v2l-8 5-5 3-11 3-15-1-15-6-5-3v-2l-4-2-3-2v-2l-4-2-18-18-7-6 1-5 6-7h2l1-4 3-1 2-4h2l2-4h2l2-4h2l2-4 6-7 5-5 7-8 6-5 1-2h2v-3zm0 5-14 15-10 10v2l-3 1-7 8-9 9-7 8-8 8 1 5 7 7 5 3 10 11 14 10 9 5 14 4 11-1 10-4 11-8 7-7 7-13 1-5v-11l-4-12-7-11-9-10-24-24z" fill="#E0BFC1"/>
<path transform="translate(429,142)" d="m0 0 5 1 3 2v2l-9-1-2 4-25 25-2 3h-2l-2 4-7 7-1 2h-2l-2 4-18 18-3 4h-2l-2 4-26 26-14 16h-2l-2 4h-2l-2 4h-2l-2 4h-2l-2 4-9 9-6 7h-2l-2 4-7 8h-2v2h-2l-2 4-18 18-7 8-9 9-7 9-3 7 4 5-1 2-7-8 1-5 8-8 9-11 22-22 7-8 14-14 7-8 16-16 7-8 10-10 1-2h2l2-4 18-18 7-8 16-16 7-8 12-12 7-8 12-12 7-8z" fill="#DEAEB1"/>
<path transform="translate(344,343)" d="m0 0 5 1 22 22 8 7 8 8 11 8v2h3l3 3 10 7 18 8 10 3v2l-7-1-17-7-14-8-9-7-13-12-6-6-3-1-7-8-9-8v-2l-4-2v-2l-4-2-5 1-14 15-9 9-2 3h-2l-2 4-17 17-3 4h-2l-2 4h-2l-2 4-7 7-5-1-17-16-14-14-8-7-6-7 6 2v2l4 2v2l4 2v2h2l4 4v2h2v2l4 2 14 14 2 1v2l7 1 3-1 2-4 5-6h2v-3l5-5h2l2-4 4-4h2l2-4 5-5 3-4h2l2-4h2l2-4h2l2-4h2l2-4 7-7z" fill="#DEAEB1"/>
<path transform="translate(428,141)" d="m0 0h5l-4 2-17 17-2 3h-2l-2 4-16 16-7 8-12 12-7 8-16 16-7 8-14 14-1 2h-2l-2 4-14 14-7 8-16 16-7 8-14 14-7 8-13 13-7 8-13 14-1 5 7 8 10 10h-3l-17-17-1-3 4-6 5-6h2l2-4 7-8 20-20 1-2h2v-2h2v-2h2l2-4 22-22 2-3h2l2-4 13-13 7-8 10-10 7-8 12-12 1-2h2l2-4 16-16 7-8 13-13 6-7h2l2-4 8-9h2l2-4 7-8 8-7z" fill="#D16E7A"/>
<path transform="translate(447,240)" d="m0 0h5l31 31 9 14 4 12v11l-3 9-6 10-8 8-13 8-11 3-11-1-6-2 4-1 3 1 14 1v-2l8-3 8-4 10-9 4-10 3-6v-14l-3-7-3-6-6-8v-2h-2l-2-5-4-2-4-5-3-5-12-12-5-1-9 10-20 20-7 8-10 10-7 8-3 3v3l5 5 2 3-4-2-6-6 1-5 9-9 7-8 13-13 2-3h2l2-4 17-17z" fill="#D16E7A"/>
<path transform="translate(521,227)" d="m0 0 4 2 18 18 9 12 9 14 8 17 4 13 1 6v25l-3 13-7 16-6 9-9 11-12 12-10 7-11 6-16 7-13 3h-28l-17-3v-1l11 1 7 1h25l19-5 16-8 11-7 12-11 8-8 4-5 8-13 5-12 3-15v-24l-5-18-8-17-8-12-9-12-9-10-11-11z" fill="#DEAEB1"/>
<path transform="translate(114,694)" d="m0 0h8v1h-7l1 8v14h167v2l-6 1h-162l-2-3v-15z" fill="#E1C6C8"/>
<path transform="translate(345,347)" d="m0 0 5 1 7 6-1 2-10-5-1 4-6 5-1 2h-2l-2 4-17 17-7 8-8 8-5 6-7 6-5 6-4 2-6-1-1-4 6 1 8-8 5-6 23-23 7-8 15-15z" fill="#C6324C"/>
<path transform="translate(523,227)" d="m0 0 4 2 18 18 8 10 7 11 8 14 6 18 2 11v24l-3 12-4 10-7 13-13 15-14 14-17 10-12 5-3-1 16-7 14-9 12-11 10-11 7-10 6-13 4-12 1-6v-25l-4-16-5-12-8-15-12-16-9-10-12-12z" fill="#D16E7A"/>
<path transform="translate(557,264)" d="m0 0 4 2 6 10 6 15 4 17 1 6v20l-5 19-9 17-3 4h-2l-1 4-5 5-5 6-16 14-9 5-13 6-12 4h-11v-1l22-5 16-8 11-7 16-16 11-14 6-12 5-15 1-5v-24l-4-18-6-15z" fill="#C6324C"/>
<path transform="translate(513,221)" d="m0 0 4 1 14 15 6 6v2l3 1 14 19 7 12 7 16 4 15v24l-1 6h-2v-26l-3-13-3-11-10-19-1-4h-2l-2-5h-2l-10-13-11-12-5-6-6-5z" fill="#E3D7D7"/>
<path transform="translate(453,160)" d="m0 0 4 2 21 21 8 7 5 3 16 16 2 1 1 3 5 3 8 8 6 4 6 7 7 6 4 5v2l3 1 9 13-1 2-4-5-6-8-11-12-11-11-5-2-18-18-8-7-13-13-2-1v-2l-4-2-22-22z" fill="#CB4D61"/>
<path transform="translate(444,153)" d="m0 0 7 6 8 7 18 18 2 1v2l4 2 17 17 8 7 7 7-3 1-11-9-5-6-8-7-7-6-5-5v-2l-4-2-7-6-6-7-7-6-5-5-3-5z" fill="#E1C5C7"/>
<path transform="translate(448,237)" d="m0 0m-1 1m-2 1h2l-2 4-9 10-12 12-7 8-12 12-7 8-8 8 1 5 6 6 5 3 8 9-3 1-15-15-4-3-1-6 2-3h2l2-4 7-8 7-6 2-3h2l2-4 14-14 7-8 6-7z" fill="#DEAEB1"/>
<path transform="translate(447,235)" d="m0 0 5 1v2l-5 1-5 5h-2l-2 4-9 9-7 8-10 10-7 8-3 3h-2l-2 4-7 8-3 3v5l-3-2 1-5 6-7h2l1-4 3-1 2-4h2l2-4h2l2-4h2l2-4 6-7 5-5 7-8 6-5 1-2h2v-3z" fill="#E4D8D8"/>
<path transform="translate(448,242)" d="m0 0 5 1 15 15h-3l-6-5-7-8-4 2-1 3-5 3-10 10-6 7-5 5h-2l-2 4-13 13-7 9-4 3-1 2-1-4 9-9 7-8 10-10 7-8 21-21z" fill="#C6324C"/>
<path transform="translate(468,259)" d="m0 0 7 6 8 9 9 14 2 6v17l-4 12-9 10-8 6-10 5-8 2-11-1-6-2 4-1 3 1 14 1v-2l8-3 8-4 10-9 4-10 3-6v-14l-3-7-3-6-6-8v-2h-2l-2-5-4-2-4-5z" fill="#C6324C"/>
<path transform="translate(344,343)" d="m0 0 5 1v1h-5l-2 4-17 17-7 8-18 18-14 16h-2l-2 4-3 2-4-1-1-2h5l3-1 2-4 5-6h2v-3l5-5h2l2-4 4-4h2l2-4 5-5 3-4h2l2-4h2l2-4h2l2-4h2l2-4 7-7z" fill="#E4D8D8"/>
<path transform="translate(353,350)" d="m0 0 4 2 14 14 8 7 8 8 11 8v2h3l3 3 10 7 18 8 10 3v2l-7-1-17-7-14-8-9-7-13-12-6-6-3-1-7-8-9-8v-2l-4-2z" fill="#E1C3C5"/>
<path transform="translate(345,347)" d="m0 0 5 1 3 2-1 2-3-2-4 1-14 14-3 4h-2l-2 4-17 17-7 8-14 15-5 4-7-1 1-2 5 1 8-8 5-6 23-23 7-8 15-15z" fill="#D16E7A"/>
<path transform="translate(715,626)" d="m0 0 4 5 2 14v16l-4 16h-2l-1 5-9 13-10 10-9 6-2-1 12-9 4-5 5-5 5-8 4-7 3-9 2-11v-9l-3-16z" fill="#DEB3B6"/>
<path transform="translate(260,313)" d="m0 0h2v2h-2l-2 4-15 15-2 3h-2l-2 4-7 8-5 5-4 5-2 2 1-6 3-5 5-5 3-1 2-4h2v-3l3-1 4-4 1-3 3-1 6-7 2-1 1-3 3-1z" fill="#C6324C"/>
<path transform="translate(554,379)" d="m0 0v3l-6 7-16 14-9 5-13 6-12 4h-11v-1l22-5 16-8 11-7z" fill="#C6324C"/>
<path transform="translate(230,371)" d="m0 0 6 2v2l4 2v2l4 2v2h2l4 4v2h2v2l4 2 14 14 2 1v2l2 1-4-1-10-9-16-16-8-7z" fill="#E1C9CA"/>
<path transform="translate(408,325)" d="m0 0 4 1 14 10 6 4v2l11 3 4 2h-6l-15-6-5-3v-2l-4-2-3-2v-2l-4-2z" fill="#E1C9CA"/>
<path transform="translate(490,319)" d="m0 0 1 2-6 8-10 9-12 6-8 2-11-1-6-2 4-1 3 1 14 1v-2l8-3 8-4 10-9z" fill="#D16E7A"/>
<path transform="translate(480,333)" d="m0 0 3 1-3 1v2l-8 5-5 3-11 3h-7l-17-6 3-1 14 4 11-1 10-4z" fill="#E0BEBF"/>
<path transform="translate(405,319)" d="m0 0 4 1 6 5 7 4 3 2v3l4 2 9 5-3 1-9-5-11-8-10-9z" fill="#C84157"/>
<path transform="translate(399,289)" d="m0 0v3l-9 9 1 5 6 6 5 3 8 9-3 1-15-15-4-3-1-6 5-5z" fill="#DFB8BA"/>
<path transform="translate(417,273)" d="m0 0v3l-15 15-7 8-3 3v3l5 5 2 3-4-2-6-6 1-5 14-14z" fill="#D16E7A"/>
<path transform="translate(114,694)" d="m0 0h8v1h-7l1 8v14h27l1 2h-28l-3-2v-15z" fill="#E4D8D8"/>
<path transform="translate(438,414)" d="m0 0 8 1 13 2 28 1-1 2h-29l-19-5z" fill="#CC5567"/>
<path transform="translate(326,245)" d="m0 0v3l-15 15-7 8-9 9v-3l5-5 9-10 7-9 6-5z" fill="#C6324C"/>
<path transform="translate(487,191)" d="m0 0 4 2 16 16 2 1 3 5 11 11h-3l-18-18-7-8-8-8z" fill="#CB4D61"/>
<path transform="translate(292,280)" d="m0 0h2v2l-27 27-1 2h-2v2l-2-1 1-3 7-6 5-6 6-5 6-7z" fill="#C6324C"/>
<path transform="translate(353,350)" d="m0 0 4 2 14 14 8 7 8 8-1 2-10-10-3-1-7-8-9-8v-2l-4-2z" fill="#E0BDBF"/>
<path transform="translate(433,140)" d="m0 0 4 2 5 4 3 4v2l4 1 5 4 1 3-5-1-11-11-2-1v-2l-4-2z" fill="#CA4B5F"/>
<path transform="translate(242,384)" d="m0 0 4 2 21 21 7 6h-3l-3-3-5-3-8-8-7-8z" fill="#CD5B6B"/>
<path transform="translate(712,680)" d="m0 0 1 4-9 12-9 9-9 6-2-1 12-9 4-5 5-5 5-8z" fill="#E1C5C6"/>
<path transform="translate(404,398)" d="m0 0 5 2 16 8 13 5v1l-9-1-19-9-6-4z" fill="#CB4F62"/>
<path transform="translate(469,253)" d="m0 0 5 4v2h2v2h2l7 8 5 6 2 7-6-5-3-7-15-15z" fill="#E3D5D5"/>
<path transform="translate(113,514)" d="m0 0 2 2 1 17 1 3 11 2v1l-13-1-2-3z" fill="#E1C3C4"/>
<path transform="translate(712,684)" d="m0 0 1 2-6 9-9 10-5 4-5 1 5-5 8-7 7-8z" fill="#CB5063"/>
<path transform="translate(344,345)" d="m0 0h6l4 5-4-1-5-1-5 5-2-1z" fill="#DEB2B5"/>
<path transform="translate(414,327)" d="m0 0 5 2 15 10 4 3-6-1-16-11z" fill="#D16E7A"/>
<path transform="translate(400,291)" d="m0 0v3l-8 8v3l5 5 2 3-4-2-6-6 1-4z" fill="#CF6472"/>
<path transform="translate(114,694)" d="m0 0h8v1h-7l1 8-1 12-2 2v-15z" fill="#E1C8C9"/>
<path transform="translate(230,371)" d="m0 0 6 2v2l4 2v2l4 2v3l-4-2-10-10z" fill="#E0BEC0"/>
<path transform="translate(115,538)" d="m0 0 17 1 4 4-1 2-2-1v-2l-18-2z" fill="#D06878"/>
<path transform="translate(606,507)" d="m0 0h26l5 1v2l-9-1-22-1z" fill="#D4828B"/>
<path transform="translate(422,407)" d="m0 0 8 1 12 4v2l-7-1-13-5z" fill="#E0C2C4"/>
<path transform="translate(346,349)" d="m0 0 4 1 7 4-1 2-7-4-4-2z" fill="#C73A52"/>
<path transform="translate(259,399)" d="m0 0 4 1 7 7 2 1v2l2 1-4-1-10-9z" fill="#E0BEC0"/>
<path transform="translate(389,386)" d="m0 0 5 3 7 6 3 3-6-2-6-5-3-3z" fill="#CC5768"/>
<path transform="translate(387,382)" d="m0 0 4 2 7 5v2l-4-1-7-6z" fill="#E2CCCD"/>
<path transform="translate(500,414)" d="m0 0 3 1h-2v2l-3 1h-11v-1z" fill="#CD5869"/>
<path transform="translate(399,313)" d="m0 0 6 5 5 7-4-1-3-3-3-5z" fill="#D99CA2"/>
<path transform="translate(698,701)" d="m0 0 3 1-8 7-5 1 5-5z" fill="#C9465B"/>
<path transform="translate(470,337)" d="m0 0 2 1-4 4-2 1h-7l2-2 6-2z" fill="#C94359"/>
</svg>
